<mxfile host="Electron" modified="2024-05-21T11:38:48.165Z" agent="Mozilla/5.0 (Windows NT 10.0; Win64; x64) AppleWebKit/537.36 (KHTML, like Gecko) draw.io/24.4.0 Chrome/120.0.6099.109 Electron/28.1.0 Safari/537.36" etag="hq0yIGMKffB6ns_udq-r" version="24.4.0" type="device">
  <diagram name="Page-1" id="uJvjLB1FOn4FUwgaTOvM">
    <mxGraphModel dx="1886" dy="-277" grid="1" gridSize="10" guides="1" tooltips="1" connect="1" arrows="1" fold="1" page="1" pageScale="1" pageWidth="827" pageHeight="1169" math="0" shadow="0">
      <root>
        <mxCell id="0" />
        <mxCell id="1" parent="0" />
        <mxCell id="UzZz_umDy-YKB02dUOfT-15" value="" style="rounded=0;whiteSpace=wrap;html=1;fillColor=#e1d5e7;strokeColor=#9673a6;direction=south;" vertex="1" parent="1">
          <mxGeometry x="119" y="1379" width="590" height="340" as="geometry" />
        </mxCell>
        <mxCell id="UzZz_umDy-YKB02dUOfT-16" value="&lt;h1 style=&quot;margin-top: 0px;&quot;&gt;Stripe&lt;/h1&gt;" style="text;html=1;whiteSpace=wrap;overflow=hidden;rounded=0;align=center;" vertex="1" parent="1">
          <mxGeometry x="374" y="1410" width="80" height="40" as="geometry" />
        </mxCell>
        <mxCell id="UzZz_umDy-YKB02dUOfT-17" value="" style="rounded=0;whiteSpace=wrap;html=1;fillColor=#d5e8d4;strokeColor=#82b366;direction=south;" vertex="1" parent="1">
          <mxGeometry x="119" y="1719" width="590" height="340" as="geometry" />
        </mxCell>
        <mxCell id="UzZz_umDy-YKB02dUOfT-18" value="&lt;font style=&quot;font-size: 20px;&quot;&gt;Preview Page&lt;/font&gt;" style="rounded=1;whiteSpace=wrap;html=1;" vertex="1" parent="1">
          <mxGeometry x="159" y="1839" width="190" height="100" as="geometry" />
        </mxCell>
        <mxCell id="UzZz_umDy-YKB02dUOfT-19" value="&lt;font style=&quot;font-size: 20px;&quot;&gt;Checkout Page&lt;/font&gt;" style="rounded=1;whiteSpace=wrap;html=1;" vertex="1" parent="1">
          <mxGeometry x="159" y="1509" width="190" height="100" as="geometry" />
        </mxCell>
        <mxCell id="UzZz_umDy-YKB02dUOfT-20" value="&lt;font style=&quot;font-size: 20px;&quot;&gt;Stripe&lt;/font&gt;" style="rounded=1;whiteSpace=wrap;html=1;" vertex="1" parent="1">
          <mxGeometry x="479" y="1509" width="190" height="100" as="geometry" />
        </mxCell>
        <mxCell id="UzZz_umDy-YKB02dUOfT-21" value="&lt;span style=&quot;font-size: 20px;&quot;&gt;API&lt;/span&gt;" style="rounded=1;whiteSpace=wrap;html=1;" vertex="1" parent="1">
          <mxGeometry x="479" y="1839" width="190" height="100" as="geometry" />
        </mxCell>
        <mxCell id="UzZz_umDy-YKB02dUOfT-22" value="&lt;h1 style=&quot;margin-top: 0px;&quot;&gt;CaseCobra&lt;/h1&gt;" style="text;html=1;whiteSpace=wrap;overflow=hidden;rounded=0;align=center;" vertex="1" parent="1">
          <mxGeometry x="349" y="1750" width="130" height="40" as="geometry" />
        </mxCell>
        <mxCell id="UzZz_umDy-YKB02dUOfT-23" value="&lt;font style=&quot;font-size: 16px;&quot;&gt;Checkout&lt;/font&gt;" style="endArrow=classic;html=1;rounded=0;exitX=0.5;exitY=0;exitDx=0;exitDy=0;entryX=0.5;entryY=1;entryDx=0;entryDy=0;labelBorderColor=none;" edge="1" parent="1" source="UzZz_umDy-YKB02dUOfT-18" target="UzZz_umDy-YKB02dUOfT-19">
          <mxGeometry width="50" height="50" relative="1" as="geometry">
            <mxPoint x="1009" y="1859" as="sourcePoint" />
            <mxPoint x="1059" y="1809" as="targetPoint" />
          </mxGeometry>
        </mxCell>
        <mxCell id="UzZz_umDy-YKB02dUOfT-24" value="&lt;font style=&quot;font-size: 16px;&quot;&gt;Payment&lt;/font&gt;" style="endArrow=classic;html=1;rounded=0;exitX=1;exitY=0.5;exitDx=0;exitDy=0;entryX=0;entryY=0.5;entryDx=0;entryDy=0;labelBackgroundColor=#E1D5E7;" edge="1" parent="1" source="UzZz_umDy-YKB02dUOfT-19" target="UzZz_umDy-YKB02dUOfT-20">
          <mxGeometry x="0.0105" width="50" height="50" relative="1" as="geometry">
            <mxPoint x="1069" y="1989" as="sourcePoint" />
            <mxPoint x="1299" y="1989" as="targetPoint" />
            <mxPoint as="offset" />
          </mxGeometry>
        </mxCell>
        <mxCell id="UzZz_umDy-YKB02dUOfT-25" value="&lt;font style=&quot;font-size: 16px;&quot;&gt;Webhook&lt;/font&gt;&lt;div&gt;&lt;font style=&quot;font-size: 16px;&quot;&gt;Signature&lt;/font&gt;&lt;/div&gt;" style="endArrow=classic;html=1;rounded=0;exitX=0.5;exitY=1;exitDx=0;exitDy=0;entryX=0.5;entryY=0;entryDx=0;entryDy=0;" edge="1" parent="1" source="UzZz_umDy-YKB02dUOfT-20" target="UzZz_umDy-YKB02dUOfT-21">
          <mxGeometry width="50" height="50" relative="1" as="geometry">
            <mxPoint x="859" y="2219" as="sourcePoint" />
            <mxPoint x="1089" y="2219" as="targetPoint" />
            <mxPoint as="offset" />
          </mxGeometry>
        </mxCell>
      </root>
    </mxGraphModel>
  </diagram>
</mxfile>
